<?xml version="1.0"?>
<svg xmlns="http://www.w3.org/2000/svg" id="Layer_1" enable-background="new 0 0 512.002 512.002" height="512px" viewBox="0 0 512.002 512.002" width="512px"><path d="m256.002 511.957c-88.261.053-249.97-23.251-256.002-113.498.002-19.253 9.58-47.436 55.212-72.373 30.817-16.842 72.688-29.24 121.082-35.854 26.429-2.542 31.55 35 5.416 39.632-47.05 6.066-136.784 28.768-141.709 68.594.001 15.507 21.646 33.716 56.49 47.521 42.286 16.753 98.935 25.979 159.511 25.979s117.225-9.226 159.511-25.979c34.844-13.805 56.489-32.014 56.489-47.521 0-23.043-47.646-54.626-135.945-67.772-10.925-1.626-18.694-11.801-17.068-22.727 1.628-10.926 12.039-18.46 22.958-16.837 104.894 15.616 170.055 56.744 170.055 107.336 0 33.738-29.035 63.821-81.756 84.708-46.863 18.566-108.744 28.791-174.244 28.791zm22-131v-290.912c0-27.57 22.43-50 50-50h84.602c.565.021 2.208-.001 3.168 2.013.651 1.365.542 2.679-.325 3.909l-29.223 32.043c-7.053 7.733-6.95 19.597.236 27.208l30.906 32.73c.983 1.523.657 2.992.178 3.99-1.011 2.106-2.64 2.107-3.163 2.107h-81.379c-26.536 1.056-26.516 38.953 0 40h81.391c36.425.296 56.9-43.455 33.891-71.521-.338-.422-.693-.83-1.065-1.223l-18.934-20.051 17.249-18.914c.26-.285.512-.577.754-.876 10.807-13.321 12.948-31.184 5.589-46.618-7.298-15.307-22.357-24.808-39.286-24.797h-84.589c-49.626 0-90 40.374-90 90v290.913c0 11.046 8.954 20 20 20 11.046-.001 20-8.955 20-20.001z" fill="#CF2127"/></svg>
