<?xml version="1.0"?>
<svg xmlns="http://www.w3.org/2000/svg" id="Capa_1" enable-background="new 0 0 512 512" height="512px" viewBox="0 0 512 512" width="512px"><g><path d="m432 218.009v-22.009c0-77.196-62.804-140-140-140h-72c-77.196 0-140 62.804-140 140v22.009c-45.587 9.292-80 49.699-80 97.991v40c0 33.084 26.916 60 60 60h23.44c8.256 23.278 30.487 40 56.56 40 33.084 0 60-26.916 60-60s-26.916-60-60-60c-26.073 0-48.303 16.722-56.56 40h-23.44c-11.028 0-20-8.972-20-20v-40c0-33.084 26.916-60 60-60 11.046 0 20-8.954 20-20v-40c0-55.14 44.86-100 100-100h72c55.14 0 100 44.86 100 100v40c0 11.046 8.954 20 20 20 33.084 0 60 26.916 60 60v40c0 11.028-8.972 20-20 20h-23.44c-8.256-23.278-30.487-40-56.56-40-33.084 0-60 26.916-60 60s26.916 60 60 60c26.073 0 48.303-16.722 56.56-40h23.44c33.084 0 60-26.916 60-60v-40c0-48.292-34.413-88.699-80-97.991zm-292 157.991c11.028 0 20 8.972 20 20s-8.972 20-20 20-20-8.972-20-20 8.972-20 20-20zm232 40c-11.028 0-20-8.972-20-20s8.972-20 20-20 20 8.972 20 20-8.972 20-20 20z" fill="#CF2127"/><path d="m256 136c-11.046 0-20 8.954-20 20v60h-56c-11.046 0-20 8.954-20 20s8.954 20 20 20h152c11.046 0 20-8.954 20-20s-8.954-20-20-20h-56v-60c0-11.046-8.954-20-20-20z" fill="#CF2127"/><path d="m267.992 416c11.046 0 20-8.954 20-20s-8.954-20-20-20h-23.984c-11.046 0-20 8.954-20 20s8.954 20 20 20z" fill="#CF2127"/></g></svg>
