<?xml version="1.0"?>
<svg xmlns="http://www.w3.org/2000/svg" id="Layer_1" enable-background="new 0 0 512 512" height="512px" viewBox="0 0 512 512" width="512px"><path d="m512 120v96c-1.056 26.536-38.953 26.516-40 0v-96c0-44.112-35.888-80-80-80h-272c-44.112 0-80 35.888-80 80v272c0 44.112 35.888 80 80 80h100c26.536 1.056 26.516 38.953 0 40h-100c-66.168 0-120-53.832-120-120v-272c0-66.168 53.832-120 120-120h272c66.168 0 120 53.832 120 120zm-185-10c0-11.046-8.954-20-20-20h-102c-26.536 1.056-26.516 38.953 0 40h102c11.046 0 20-8.954 20-20zm165 287.185c-10.391-3.745-21.851 1.644-25.597 12.034-37.654 99.111-182.594 73.977-184.403-32.22-.91-67.845 73.039-116.144 134.643-85.828 10.035 4.614 21.911.221 26.527-9.814 4.615-10.036.222-21.912-9.813-26.527-87.414-42.693-192.722 25.675-191.356 122.171 2.575 150.907 208.541 186.628 262.032 45.78 3.746-10.39-1.642-21.85-12.033-25.596zm-63.842 5.676 78.051-78.785c7.773-7.848 7.714-20.511-.133-28.284-7.847-7.774-20.511-7.715-28.284.132l-78.089 78.825c-4.028 4.287-11.263 4.296-15.278.062l-28.116-28.785c-7.718-7.902-20.38-8.05-28.283-.333-7.901 7.719-8.05 20.381-.333 28.282l28.177 28.847c9.643 9.788 22.487 15.179 36.165 15.179s26.519-5.392 36.123-15.14z" fill="#CF2127"/></svg>
