<?xml version="1.0"?>
<svg xmlns="http://www.w3.org/2000/svg" id="Layer_1" enable-background="new 0 0 512 512" height="512px" viewBox="0 0 512 512" width="512px"><path d="m277 432.011h-157c-66.168 0-120-53.832-120-120v-192c0-66.168 53.832-120 120-120h272c66.168 0 120 53.832 120 120v36c-1.056 26.536-38.953 26.516-40 0v-36c0-44.112-35.888-80-80-80h-272c-44.112 0-80 35.888-80 80v192c0 44.112 35.888 80 80 80h157c26.536 1.057 26.516 38.954 0 40zm7-222c0-11.046-8.954-20-20-20h-144c-26.536 1.056-26.516 38.953 0 40h144c11.046 0 20-8.954 20-20zm-53 80c0-11.046-8.954-20-20-20h-91c-26.536 1.056-26.516 38.953 0 40h91c11.046 0 20-8.954 20-20zm203.106 101.783 3.896-5.865 6.903 1.393c12.689 2.557 25.725-1.377 34.877-10.528 9.151-9.151 13.087-22.189 10.527-34.876l-1.393-6.902 5.866-3.896c22.81-14.694 22.805-49.523 0-64.212l-5.866-3.897 1.393-6.902c2.56-12.687-1.376-25.725-10.528-34.876-9.152-9.152-22.191-13.086-34.877-10.528l-6.903 1.393-3.896-5.865s0 0 0-.001c-14.695-22.81-49.522-22.804-64.212.001l-3.896 5.865-6.903-1.393c-12.688-2.558-25.725 1.376-34.876 10.528-9.152 9.152-13.087 22.189-10.528 34.877l1.393 6.902-5.866 3.896c-22.81 14.694-22.805 49.523 0 64.212l5.866 3.897-1.393 6.902c-2.56 12.687 1.376 25.725 10.527 34.876 9.152 9.151 22.189 13.084 34.876 10.528l6.904-1.393 3.896 5.866c7.161 10.78 19.163 17.217 32.105 17.217s24.946-6.438 32.108-17.219zm-75.058-45.27-5.714 1.152 1.153-5.713c3.112-15.427-3.348-31.021-16.456-39.727l-4.855-3.226 4.855-3.225c13.108-8.707 19.568-24.301 16.456-39.728l-1.153-5.713 5.714 1.153c15.426 3.112 31.021-3.348 39.728-16.457l3.224-4.854 3.225 4.855c8.707 13.108 24.301 19.567 39.729 16.456l5.713-1.153-1.153 5.714c-3.112 15.426 3.348 31.02 16.456 39.726l4.855 3.226-4.855 3.225c-13.108 8.707-19.568 24.301-16.456 39.728l1.153 5.713-5.714-1.152c-15.432-3.109-31.021 3.349-39.728 16.457l-3.225 4.855-3.224-4.854c-7.255-10.923-19.29-17.229-32.027-17.229-2.549 0-5.128.253-7.701.771zm79.496-133.613h.01zm-26.544-82.9c0-11.046-8.954-20-20-20h-272c-26.536 1.056-26.516 38.953 0 40h272c11.046 0 20-8.954 20-20zm38.394 379.166c12.518-5.414 20.606-17.724 20.606-31.363v-37.803c-1.056-26.536-38.953-26.516-40 0v24.48l-16.431-15.174c-7.662-7.076-19.476-7.076-27.138 0l-16.431 15.175v-24.48c-1.056-26.536-38.953-26.516-40 0v37.803c0 13.639 8.088 25.949 20.606 31.362 12.486 5.4 26.95 2.89 36.885-6.391l12.509-11.551 12.509 11.551c6.457 6.031 14.825 9.202 23.321 9.202 4.577 0 9.192-.921 13.564-2.811z" fill="#CF2127"/></svg>
