<svg width="47" height="16" viewBox="0 0 47 16" fill="none" xmlns="http://www.w3.org/2000/svg">
<path fill-rule="evenodd" clip-rule="evenodd" d="M11.5942 0.444832H5.38468L0 15.7822H5.08007L5.97517 12.5989H15.8026L14.6544 9.28584H6.91714L7.67634 6.7049L8.40742 3.83203H12.7658L11.5942 0.444832Z" fill="#00428E"/>
<path fill-rule="evenodd" clip-rule="evenodd" d="M15.8004 12.5989H10.9219L11.8264 15.7822H16.9017L15.8004 12.5989Z" fill="#00428E"/>
<path fill-rule="evenodd" clip-rule="evenodd" d="M12.7646 3.83197H8.5L9.22639 6.70483L9.97153 9.28578H14.6533L12.7646 3.83197Z" fill="#00428E"/>
<path fill-rule="evenodd" clip-rule="evenodd" d="M42.8618 0L41.1513 0.10194L39.2627 0.463365L37.374 1.16305L35.6635 2.27976L34.2998 3.8969L33.6765 5.287L33.3391 6.95511L33.2969 7.90038L33.3391 8.81784L33.6437 10.4582L34.2201 11.8436L35.0168 12.9974L36.5492 14.3273L38.3488 15.2308L40.2796 15.7637L42.2011 15.9861L42.815 16L43.443 15.9815L45.0879 15.7776L46.7094 15.3235L47.0046 15.2123L46.4376 12.6267H43.6632L43.2321 12.6221L41.3622 12.3626L40.0125 11.7787L38.9253 10.7084L38.2926 9.01709L38.2129 8.29424L38.2598 7.39531L38.5972 5.94034L39.5532 4.48074L40.7858 3.70692L42.3463 3.3733L42.6463 3.3594H46.058L46.7937 0.704315L45.4112 0.13901L43.607 0.00463365L42.8618 0Z" fill="#00428E"/>
<path fill-rule="evenodd" clip-rule="evenodd" d="M46.3213 12.0938L44.7607 12.52L43.6641 12.6266H46.4384L46.3213 12.0938Z" fill="#00428E"/>
<path fill-rule="evenodd" clip-rule="evenodd" d="M46.0523 3.35931H42.6406L43.1749 3.37322L43.6904 3.41028L45.101 3.68367L45.8789 3.98949L46.0523 3.35931Z" fill="#00428E"/>
<path fill-rule="evenodd" clip-rule="evenodd" d="M26.2821 0L24.5435 0.0973067L22.6408 0.444831L20.7522 1.13061L19.0463 2.24269L17.6966 3.86447L17.0827 5.26846L16.7453 6.96901L16.7031 7.93745L16.7453 8.87808L17.0499 10.5416L17.6263 11.9363L18.8776 13.5673L20.471 14.7118L22.2471 15.4393L24.0561 15.8239L25.7385 15.9351L26.3712 15.9305L28.0724 15.8239L29.5017 15.6247L30.9732 15.254L31.0342 12.7333H25.7994L25.4808 12.724L23.9061 12.3858L22.6924 11.6166L21.7598 10.1987L21.4317 8.79467L21.3848 7.93281L21.4317 7.10802L22.0269 5.22676L23.1141 4.10542L24.4123 3.55401L25.6589 3.37793H29.6892L30.6264 0.829424L29.1127 0.203881L27.5568 0.013901L26.9804 0.00463365L26.2821 0Z" fill="#00428E"/>
<path fill-rule="evenodd" clip-rule="evenodd" d="M31.1909 6.13965L27.1372 9.50831V12.599L26.767 12.6685L26.3218 12.7102L25.7969 12.7333H31.0316L31.1909 6.13965Z" fill="#00428E"/>
<path fill-rule="evenodd" clip-rule="evenodd" d="M29.6866 3.37791H25.6562L26.2046 3.38718L26.7435 3.41962L28.2338 3.62813L29.4616 3.99419L29.6866 3.37791Z" fill="#00428E"/>
<path fill-rule="evenodd" clip-rule="evenodd" d="M31.2062 6.17212H24.0781V9.49445H27.143L31.2062 6.17212Z" fill="#E73656"/>
</svg>
