<svg width="30" height="31" viewBox="0 0 30 31" fill="none" xmlns="http://www.w3.org/2000/svg">
<path d="M12.8176 4.93122C13.7716 3.22374 16.2284 3.22374 17.1824 4.93122L25.0601 19.0306C25.9912 20.697 24.7866 22.75 22.8777 22.75H7.1223C5.21341 22.75 4.00878 20.697 4.93985 19.0306L12.8176 4.93122Z" stroke="#CD2425"/>
<path d="M15.8711 10.0469L15.6729 17.0127H14.1484L13.9502 10.0469H15.8711ZM13.8955 19.1592C13.8955 18.8903 13.9867 18.6647 14.1689 18.4824C14.3558 18.2956 14.6064 18.2021 14.9209 18.2021C15.2354 18.2021 15.4837 18.2956 15.666 18.4824C15.8529 18.6647 15.9463 18.8903 15.9463 19.1592C15.9463 19.4235 15.8529 19.6468 15.666 19.8291C15.4837 20.0114 15.2354 20.1025 14.9209 20.1025C14.6064 20.1025 14.3558 20.0114 14.1689 19.8291C13.9867 19.6468 13.8955 19.4235 13.8955 19.1592Z" fill="#CD2425"/>
</svg>
