<svg width="42" height="42" viewBox="0 0 42 42" fill="none" xmlns="http://www.w3.org/2000/svg">
<path d="M39.1856 10.4999L34.3123 7.68622L31.4994 2.81369H25.8728L20.9996 0L16.1263 2.81369H10.4998L7.68609 7.68695L2.81369 10.4999V16.1264L0 20.9997L2.81369 25.8729V31.4995L7.68695 34.3132L10.5006 39.1864H16.1272L20.9997 41.9994L25.873 39.1857H31.4995L34.3132 34.3124L39.1864 31.4987V25.8722L42.0001 20.999L39.1864 16.1257V10.4999H39.1856ZM19.1043 29.5947C18.7127 29.9862 18.1968 30.1765 17.6833 30.1693C17.1696 30.1766 16.6539 29.9862 16.2623 29.5947L10.1207 23.453C9.3513 22.6836 9.3513 21.4356 10.1207 20.6662L11.7465 19.0403C12.5159 18.271 13.764 18.271 14.5333 19.0403L17.6833 22.1903L27.4653 12.4075C28.2347 11.6382 29.4828 11.6382 30.2521 12.4075L31.878 14.0334C32.6474 14.8028 32.6474 16.0508 31.878 16.8202L19.1043 29.5947Z" fill="#CF2127"/>
</svg>
