<svg width="28" height="29" viewBox="0 0 28 29" fill="none" xmlns="http://www.w3.org/2000/svg">
<circle cx="13.8361" cy="14.4845" r="13.0838" fill="white" stroke="#4D5665" stroke-width="1.19851"/>
<path d="M13.2008 7.64089C12.9845 7.68263 12.7151 7.7851 12.5557 7.88756C12.4608 7.94448 11.7398 8.65793 10.9542 9.47005C9.8537 10.6085 9.4818 10.9691 9.34138 11.0374C9.18199 11.1133 9.07574 11.1322 8.53306 11.155C7.55396 11.2005 6.93918 11.2575 6.69251 11.322C5.87659 11.5383 5.50089 11.9861 5.37946 12.8741C5.35289 13.0866 5.3453 13.6483 5.35669 14.5173C5.37187 15.7355 5.37946 15.857 5.45535 16.1188C5.56161 16.4793 5.67167 16.6691 5.89557 16.874C6.29024 17.2383 6.776 17.356 8.11561 17.4091C8.75317 17.4357 9.1061 17.4698 9.23512 17.5078C9.44005 17.5723 9.53872 17.6709 11.7018 19.8834C12.2635 20.4564 12.5481 20.7221 12.6696 20.779C13.1591 21.0105 13.7435 21.0333 14.1382 20.8435C14.4304 20.6993 14.7264 20.3843 14.8972 20.0352L15.0414 19.7468L15.0528 14.3845C15.0642 8.33157 15.0869 8.82112 14.7568 8.32777C14.5594 8.03177 14.2786 7.79269 14.0244 7.70161C13.8612 7.64468 13.3754 7.61053 13.2008 7.64089ZM13.6752 8.93117C13.7283 8.96532 13.7853 9.0564 13.808 9.1361C13.8574 9.31826 13.8422 19.4432 13.7929 19.5456C13.7549 19.6215 13.5044 19.762 13.402 19.762C13.364 19.762 12.9769 19.39 12.5026 18.8967C10.4685 16.7867 10.2863 16.6197 9.80057 16.4034C9.42487 16.2364 9.17061 16.1947 8.32434 16.1719C7.09477 16.1378 6.83292 16.0884 6.68492 15.8645C6.62799 15.7773 6.61281 15.6406 6.59763 15.0183C6.58625 14.6122 6.58625 13.9519 6.59763 13.5496C6.61661 12.8893 6.6242 12.8134 6.6963 12.7147C6.73805 12.6578 6.81774 12.5857 6.87087 12.5629C7.02267 12.487 7.46288 12.4453 8.30916 12.4225C9.21235 12.3998 9.47041 12.3504 9.93719 12.1265C10.237 11.9785 10.3129 11.9178 11.0415 11.1892C11.4703 10.7603 12.1648 10.0507 12.5861 9.61426C13.3109 8.86666 13.3564 8.82491 13.4665 8.84389C13.5272 8.85907 13.6221 8.89702 13.6752 8.93117Z" fill="#4D5665"/>
<path d="M18.6717 7.694C18.4895 7.80405 18.3984 7.97862 18.3984 8.2177C18.3984 8.32775 18.4174 8.45678 18.4402 8.50232C18.4667 8.54786 18.6679 8.77176 18.888 9.00325C19.5711 9.70911 20.0189 10.3391 20.387 11.1132C20.8841 12.1607 21.1004 13.117 21.0966 14.2782C21.0966 15.7051 20.7779 16.874 20.053 18.1073C19.7532 18.6159 19.4345 19.0219 18.9259 19.5494C18.6831 19.8037 18.4667 20.0466 18.444 20.0921C18.4174 20.1376 18.3984 20.2667 18.3984 20.3767C18.3984 20.7448 18.6299 20.9763 18.998 20.9763C19.1081 20.9763 19.2447 20.9535 19.3016 20.9232C19.4534 20.8435 20.1631 20.1035 20.4781 19.6936C21.3927 18.5058 21.9923 17.1206 22.2769 15.5495C22.3566 15.1017 22.3414 13.394 22.2579 12.931C21.9695 11.3903 21.3168 9.9482 20.3794 8.77556C20.091 8.41883 19.4269 7.73574 19.3016 7.67123C19.1498 7.59153 18.8197 7.60292 18.6717 7.694Z" fill="#4D5665"/>
<path d="M17.156 10.73C16.9739 10.84 16.8828 11.0146 16.8828 11.2537C16.8828 11.47 16.9397 11.618 17.0726 11.7356C17.2319 11.876 17.5545 12.3428 17.7063 12.6464C18.1807 13.6065 18.1921 14.8133 17.7405 15.8C17.5849 16.1302 17.4558 16.3275 17.1257 16.7108C16.8866 16.9954 16.8828 17.003 16.8828 17.2231C16.8828 17.5153 17.0005 17.7127 17.2206 17.8037C17.5925 17.9517 17.8315 17.8493 18.1997 17.3901C18.6626 16.8095 18.9776 16.1757 19.1901 15.3977C19.2812 15.0638 19.2888 14.9765 19.2888 14.2593C19.2926 13.5306 19.285 13.4585 19.1901 13.1018C19.0194 12.4756 18.7879 11.9519 18.4691 11.4738C18.2642 11.1664 17.915 10.7755 17.7898 10.7072C17.6342 10.6275 17.3078 10.6389 17.156 10.73Z" fill="#4D5665"/>
</svg>
