<?xml version="1.0" encoding="UTF-8" standalone="no"?>
<!DOCTYPE svg PUBLIC "-//W3C//DTD SVG 1.1//EN" "http://www.w3.org/Graphics/SVG/1.1/DTD/svg11.dtd">
<svg width="100%" height="100%" viewBox="0 0 43 43" version="1.1" xmlns="http://www.w3.org/2000/svg" xmlns:xlink="http://www.w3.org/1999/xlink" xml:space="preserve" xmlns:serif="http://www.serif.com/" style="fill-rule:evenodd;clip-rule:evenodd;stroke-linejoin:round;stroke-miterlimit:2;">
    <g>
        <g transform="matrix(1.02599,0,0,1.02599,-10.0309,-1.11743)">
            <circle cx="30.732" cy="22.045" r="20.955" style="fill:rgb(207,33,39);"/>
        </g>
        <g transform="matrix(0.783195,0,0,0.806703,4.94182,4.57639)">
            <g transform="matrix(1.05914,0,0,1.05914,-0.631451,-0.557329)">
                <circle cx="20.547" cy="7.955" r="4.823" style="fill:white;"/>
            </g>
            <path d="M17.17,22.712L15.581,22.712C15.247,22.712 14.926,22.58 14.69,22.343C14.453,22.107 14.32,21.786 14.32,21.452C14.32,20.355 14.32,18.775 14.32,17.678C14.32,16.982 14.885,16.417 15.581,16.417C17.649,16.417 21.739,16.417 23.807,16.417C24.503,16.417 25.068,16.982 25.068,17.678C25.068,21.542 25.068,32.961 25.068,32.961L26.702,32.961C27.037,32.961 27.358,33.094 27.594,33.33C27.83,33.566 27.963,33.887 27.963,34.221C27.963,35.303 27.963,36.855 27.963,37.937C27.963,38.633 27.399,39.198 26.703,39.198C24.104,39.198 18.179,39.198 15.581,39.198C14.885,39.198 14.32,38.633 14.32,37.937C14.32,36.855 14.32,35.303 14.32,34.221C14.32,33.887 14.453,33.566 14.69,33.33C14.926,33.094 15.247,32.961 15.581,32.961C16.344,32.961 17.17,32.961 17.17,32.961L17.17,22.712Z" style="fill:white;"/>
        </g>
    </g>
</svg>
