<svg width="42" height="42" viewBox="0 0 42 42" fill="none" xmlns="http://www.w3.org/2000/svg">
<path d="M39.1856 10.5001L34.3123 7.6864L31.4994 2.81388H25.8728L20.9996 0.000183105L16.1263 2.81388H10.4998L7.68609 7.68713L2.81369 10.5001V16.1266L0 20.9999L2.81369 25.8731V31.4997L7.68695 34.3134L10.5006 39.1866H16.1272L20.9997 41.9996L25.873 39.1859H31.4995L34.3132 34.3126L39.1864 31.4989V25.8724L42.0001 20.9991L39.1864 16.1259V10.5001H39.1856ZM19.1043 29.5949C18.7127 29.9864 18.1968 30.1767 17.6833 30.1695C17.1696 30.1768 16.6539 29.9864 16.2623 29.5949L10.1207 23.4532C9.3513 22.6838 9.3513 21.4358 10.1207 20.6664L11.7465 19.0405C12.5159 18.2712 13.764 18.2712 14.5333 19.0405L17.6833 22.1905L27.4653 12.4077C28.2347 11.6384 29.4828 11.6384 30.2521 12.4077L31.878 14.0336C32.6474 14.8029 32.6474 16.051 31.878 16.8204L19.1043 29.5949Z" fill="#A8B1B7"/>
</svg>
