<svg width="18" height="18" viewBox="0 0 18 18" fill="none" xmlns="http://www.w3.org/2000/svg">
<circle cx="8.94426" cy="8.73333" r="8.10453" fill="white" stroke="#4D5665" stroke-width="0.742399"/>
<path d="M8.54961 4.49416C8.41562 4.52002 8.24872 4.58349 8.14999 4.64695C8.09122 4.68222 7.64458 5.12415 7.15798 5.6272C6.47627 6.33242 6.2459 6.55574 6.15893 6.59805C6.0602 6.64506 5.99438 6.65682 5.65822 6.67092C5.05174 6.69913 4.67092 6.73439 4.51813 6.77435C4.01272 6.90834 3.78 7.18573 3.70478 7.7358C3.68832 7.86744 3.68362 8.21534 3.69067 8.75366C3.70008 9.50824 3.70478 9.58346 3.75179 9.74566C3.81761 9.96898 3.88578 10.0865 4.02448 10.2135C4.26895 10.4391 4.56984 10.512 5.39965 10.5449C5.79457 10.5614 6.01318 10.5825 6.09311 10.606C6.22005 10.646 6.28116 10.7071 7.62107 12.0776C7.96898 12.4325 8.14528 12.5971 8.22051 12.6323C8.52375 12.7757 8.88576 12.7898 9.13024 12.6723C9.31124 12.583 9.4946 12.3879 9.60038 12.1716L9.68971 11.9929L9.69676 8.67138C9.70381 4.92199 9.71791 5.22523 9.5134 4.91964C9.39116 4.73628 9.21721 4.58819 9.05971 4.53177C8.95863 4.49651 8.65774 4.47535 8.54961 4.49416ZM8.84345 5.2934C8.87636 5.31456 8.91162 5.37098 8.92572 5.42034C8.95628 5.53317 8.94688 11.8049 8.91632 11.8684C8.89281 11.9154 8.73767 12.0023 8.6742 12.0023C8.65069 12.0023 8.41092 11.772 8.11708 11.4664C6.85709 10.1594 6.74426 10.056 6.44336 9.92196C6.21064 9.81853 6.05314 9.79267 5.52893 9.77857C4.7673 9.75741 4.6051 9.72685 4.51342 9.58816C4.47816 9.5341 4.46876 9.44947 4.45936 9.06395C4.45231 8.81243 4.45231 8.4034 4.45936 8.15422C4.47111 7.7452 4.47581 7.69819 4.52048 7.63707C4.54633 7.60181 4.5957 7.55714 4.62861 7.54304C4.72264 7.49602 4.99532 7.47017 5.51953 7.45606C6.079 7.44196 6.23885 7.4114 6.52799 7.27271C6.7137 7.18103 6.76071 7.14342 7.21205 6.69208C7.47768 6.42645 7.90786 5.98686 8.16879 5.71653C8.61778 5.25344 8.64599 5.22758 8.71416 5.23934C8.75177 5.24874 8.81054 5.27225 8.84345 5.2934Z" fill="#4D5665"/>
<path d="M11.9427 4.52707C11.8299 4.59524 11.7734 4.70337 11.7734 4.85147C11.7734 4.91964 11.7852 4.99956 11.7993 5.02777C11.8158 5.05598 11.9403 5.19467 12.0767 5.33806C12.4998 5.7753 12.7772 6.16552 13.0052 6.64506C13.3132 7.29386 13.4471 7.88624 13.4448 8.60556C13.4448 9.48943 13.2473 10.2135 12.7984 10.9774C12.6126 11.2924 12.4152 11.544 12.1002 11.8707C11.9497 12.0282 11.8158 12.1787 11.8016 12.2069C11.7852 12.2351 11.7734 12.315 11.7734 12.3832C11.7734 12.6112 11.9168 12.7546 12.1449 12.7546C12.213 12.7546 12.2976 12.7405 12.3329 12.7217C12.4269 12.6723 12.8665 12.2139 13.0616 11.96C13.6282 11.2243 13.9996 10.3662 14.1759 9.39305C14.2252 9.11567 14.2158 8.05784 14.1641 7.77106C13.9855 6.81667 13.5811 5.92339 13.0005 5.19702C12.8219 4.97605 12.4105 4.55292 12.3329 4.51296C12.2389 4.4636 12.0344 4.47065 11.9427 4.52707Z" fill="#4D5665"/>
<path d="M11.0052 6.40762C10.8924 6.47579 10.8359 6.58392 10.8359 6.73202C10.8359 6.86601 10.8712 6.95769 10.9535 7.03056C11.0522 7.11753 11.252 7.40667 11.346 7.59473C11.6399 8.18946 11.6469 8.93699 11.3672 9.54818C11.2708 9.75269 11.1909 9.87493 10.9864 10.1123C10.8383 10.2887 10.8359 10.2934 10.8359 10.4297C10.8359 10.6107 10.9088 10.7329 11.0452 10.7894C11.2755 10.881 11.4236 10.8176 11.6516 10.5331C11.9384 10.1735 12.1335 9.7809 12.2652 9.299C12.3216 9.09214 12.3263 9.03807 12.3263 8.59379C12.3286 8.14245 12.3239 8.09778 12.2652 7.87682C12.1594 7.48895 12.016 7.16455 11.8185 6.86836C11.6916 6.67795 11.4753 6.43583 11.3978 6.39351C11.3014 6.34415 11.0992 6.3512 11.0052 6.40762Z" fill="#4D5665"/>
</svg>
