<svg width="10" height="9" viewBox="0 0 10 9" fill="none" xmlns="http://www.w3.org/2000/svg">
<path d="M4.49171 1.16655C4.71618 0.711738 5.36472 0.711738 5.58919 1.16655L6.37024 2.74914C6.45937 2.92974 6.63167 3.05492 6.83098 3.08388L8.57747 3.33766C9.07938 3.4106 9.2798 4.0274 8.91661 4.38142L7.65284 5.6133C7.50862 5.75388 7.4428 5.95643 7.47685 6.15493L7.77519 7.89436C7.86092 8.39425 7.33624 8.77545 6.88731 8.53944L5.3252 7.71819C5.14694 7.62447 4.93396 7.62447 4.7557 7.71819L3.19359 8.53944C2.74466 8.77545 2.21998 8.39425 2.30572 7.89436L2.60405 6.15493C2.6381 5.95642 2.57229 5.75388 2.42806 5.61329L1.16429 4.38142C0.801103 4.0274 1.00152 3.4106 1.50343 3.33766L3.24992 3.08388C3.44923 3.05492 3.62153 2.92974 3.71066 2.74914L4.49171 1.16655Z" fill="#CF2127"/>
</svg>
